<svg id="svgQrWrapper" viewBox="0 0 300 300" xmlns="http://www.w3.org/2000/svg" xmlns:xlink="http://www.w3.org/1999/xlink" width="300" height="300" style="width: 100%; height: 100%; background-color: rgb(38, 28, 53);"><svg><g transform="translate(9, 9)scale(0.95)" fill="none"><svg width="300" height="300"><style>.background-color{ fill: #fff; }.corners-square-color-0-0{ fill: #7246a4; }.corners-dot-color-0-0{ fill: #89346a; }.corners-square-color-1-0{ fill: #7246a4; }.corners-dot-color-1-0{ fill: #89346a; }.corners-square-color-0-1{ fill: #7246a4; }.corners-dot-color-0-1{ fill: #89346a; }</style><defs><clipPath id="clip-path-dot-color"><circle cx="5.5" cy="77.5" r="3" transform="rotate(0,5.5,77.5)"/><circle cx="5.5" cy="122.5" r="3" transform="rotate(0,5.5,122.5)"/><circle cx="5.5" cy="140.5" r="3" transform="rotate(0,5.5,140.5)"/><circle cx="5.5" cy="167.5" r="3" transform="rotate(0,5.5,167.5)"/><path d="M 1 200.28571428571428h 4.5a 3 3, 0, 0, 1, 0 6.428571428571429h -4.5v -6.428571428571429z" transform="rotate(-90,5.5,203.5)"/><path d="M 1 209.28571428571428v 6.428571428571429h 9v -6.428571428571429z" transform="rotate(90,5.5,212.5)"/><path d="M 1 218.28571428571428h 4.5a 3 3, 0, 0, 1, 0 6.428571428571429h -4.5v -6.428571428571429z" transform="rotate(90,5.5,221.5)"/><path d="M 10 83.28571428571429h 4.5a 3 3, 0, 0, 1, 0 6.428571428571429h -4.5v -6.428571428571429z" transform="rotate(-90,14.5,86.5)"/><path d="M 10 92.28571428571429v 6.428571428571429h 9v -6.428571428571429z" transform="rotate(90,14.5,95.5)"/><path d="M 10 101.28571428571429v 6.428571428571429h 9v -6.428571428571429z" transform="rotate(90,14.5,104.5)"/><path d="M 10 110.28571428571429v 6.428571428571429h 9v -6.428571428571429z" transform="rotate(90,14.5,113.5)"/><path d="M 10 119.28571428571429h 4.5a 3 3, 0, 0, 1, 0 6.428571428571429h -4.5v -6.428571428571429z" transform="rotate(90,14.5,122.5)"/><path d="M 10 155.28571428571428h 4.5a 3 3, 0, 0, 1, 0 6.428571428571429h -4.5v -6.428571428571429z" transform="rotate(-90,14.5,158.5)"/><path d="M 10 164.28571428571428h 4.5a 3 3, 0, 0, 1, 0 6.428571428571429h -4.5v -6.428571428571429z" transform="rotate(90,14.5,167.5)"/><circle cx="14.5" cy="194.5" r="3" transform="rotate(0,14.5,194.5)"/><circle cx="14.5" cy="212.5" r="3" transform="rotate(0,14.5,212.5)"/><circle cx="23.5" cy="104.5" r="3" transform="rotate(0,23.5,104.5)"/><circle cx="23.5" cy="131.5" r="3" transform="rotate(0,23.5,131.5)"/><circle cx="23.5" cy="167.5" r="3" transform="rotate(0,23.5,167.5)"/><circle cx="23.5" cy="185.5" r="3" transform="rotate(0,23.5,185.5)"/><path d="M 19 209.28571428571428h 4.5a 3 3, 0, 0, 1, 0 6.428571428571429h -4.5v -6.428571428571429z" transform="rotate(-90,23.5,212.5)"/><path d="M 19 218.28571428571428h 4.5a 3 3, 0, 0, 1, 0 6.428571428571429h -4.5v -6.428571428571429z" transform="rotate(90,23.5,221.5)"/><path d="M 28 74.28571428571429h 4.5a 3 3, 0, 0, 1, 0 6.428571428571429h -4.5v -6.428571428571429z" transform="rotate(-90,32.5,77.5)"/><path d="M 28 83.28571428571429v 6.428571428571429h 9v -6.428571428571429z" transform="rotate(90,32.5,86.5)"/><path d="M 28 92.28571428571429v 6.428571428571429h 9v -6.428571428571429z" transform="rotate(90,32.5,95.5)"/><path d="M 28 101.28571428571429h 4.5a 3 3, 0, 0, 1, 0 6.428571428571429h -4.5v -6.428571428571429z" transform="rotate(90,32.5,104.5)"/><path d="M 28 119.28571428571429h 4.5a 3 3, 0, 0, 1, 0 6.428571428571429h -4.5v -6.428571428571429z" transform="rotate(-90,32.5,122.5)"/><path d="M 28 128.28571428571428v 6.428571428571429h 9v -6.428571428571429z" transform="rotate(90,32.5,131.5)"/><path d="M 28 137.28571428571428v 6.428571428571429h 9v -6.428571428571429z" transform="rotate(90,32.5,140.5)"/><path d="M 28 146.28571428571428h 4.5a 3 3, 0, 0, 1, 0 6.428571428571429h -4.5v -6.428571428571429z" transform="rotate(90,32.5,149.5)"/><circle cx="32.5" cy="167.5" r="3" transform="rotate(0,32.5,167.5)"/><circle cx="32.5" cy="185.5" r="3" transform="rotate(0,32.5,185.5)"/><circle cx="32.5" cy="203.5" r="3" transform="rotate(0,32.5,203.5)"/><circle cx="41.5" cy="86.5" r="3" transform="rotate(0,41.5,86.5)"/><circle cx="41.5" cy="104.5" r="3" transform="rotate(0,41.5,104.5)"/><path d="M 37 137.28571428571428h 4.5a 3 3, 0, 0, 1, 0 6.428571428571429h -4.5v -6.428571428571429z" transform="rotate(-90,41.5,140.5)"/><path d="M 37 146.28571428571428v 6.428571428571429h 9v -6.428571428571429z" transform="rotate(90,41.5,149.5)"/><path d="M 37 155.28571428571428v 6.428571428571429h 9v -6.428571428571429z" transform="rotate(90,41.5,158.5)"/><path d="M 37 164.28571428571428h 4.5a 3 3, 0, 0, 1, 0 6.428571428571429h -4.5v -6.428571428571429z" transform="rotate(90,41.5,167.5)"/><path d="M 46 83.28571428571429h 4.5a 3 3, 0, 0, 1, 0 6.428571428571429h -4.5v -6.428571428571429z" transform="rotate(-90,50.5,86.5)"/><path d="M 46 92.28571428571429v 6.428571428571429h 9v -6.428571428571429z" transform="rotate(90,50.5,95.5)"/><path d="M 46 101.28571428571429v 6.428571428571429h 9v -6.428571428571429z" transform="rotate(90,50.5,104.5)"/><path d="M 46 110.28571428571429h 4.5a 3 3, 0, 0, 1, 0 6.428571428571429h -4.5v -6.428571428571429z" transform="rotate(90,50.5,113.5)"/><path d="M 46 182.28571428571428h 4.5a 3 3, 0, 0, 1, 0 6.428571428571429h -4.5v -6.428571428571429z" transform="rotate(-90,50.5,185.5)"/><path d="M 46 191.28571428571428h 4.5a 3 3, 0, 0, 1, 0 6.428571428571429h -4.5v -6.428571428571429z" transform="rotate(90,50.5,194.5)"/><circle cx="59.5" cy="77.5" r="3" transform="rotate(0,59.5,77.5)"/><circle cx="59.5" cy="95.5" r="3" transform="rotate(0,59.5,95.5)"/><circle cx="59.5" cy="113.5" r="3" transform="rotate(0,59.5,113.5)"/><circle cx="59.5" cy="131.5" r="3" transform="rotate(0,59.5,131.5)"/><circle cx="59.5" cy="149.5" r="3" transform="rotate(0,59.5,149.5)"/><circle cx="59.5" cy="167.5" r="3" transform="rotate(0,59.5,167.5)"/><circle cx="59.5" cy="185.5" r="3" transform="rotate(0,59.5,185.5)"/><circle cx="59.5" cy="203.5" r="3" transform="rotate(0,59.5,203.5)"/><circle cx="59.5" cy="221.5" r="3" transform="rotate(0,59.5,221.5)"/><circle cx="68.5" cy="86.5" r="3" transform="rotate(0,68.5,86.5)"/><path d="M 64 110.28571428571429h 4.5a 3 3, 0, 0, 1, 0 6.428571428571429h -4.5v -6.428571428571429z" transform="rotate(-90,68.5,113.5)"/><path d="M 64 119.28571428571429h 4.5a 3 3, 0, 0, 1, 0 6.428571428571429h -4.5v -6.428571428571429z" transform="rotate(90,68.5,122.5)"/><path d="M 64 155.28571428571428h 4.5a 3 3, 0, 0, 1, 0 6.428571428571429h -4.5v -6.428571428571429z" transform="rotate(-90,68.5,158.5)"/><path d="M 64 164.28571428571428v 6.428571428571429h 9v -6.428571428571429z" transform="rotate(90,68.5,167.5)"/><path d="M 64 173.28571428571428h 4.5a 3 3, 0, 0, 1, 0 6.428571428571429h -4.5v -6.428571428571429z" transform="rotate(90,68.5,176.5)"/><path d="M 64 191.28571428571428h 4.5a 3 3, 0, 0, 1, 0 6.428571428571429h -4.5v -6.428571428571429z" transform="rotate(-90,68.5,194.5)"/><path d="M 64 200.28571428571428h 4.5a 3 3, 0, 0, 1, 0 6.428571428571429h -4.5v -6.428571428571429z" transform="rotate(90,68.5,203.5)"/><circle cx="68.5" cy="221.5" r="3" transform="rotate(0,68.5,221.5)"/><circle cx="77.5" cy="23.5" r="3" transform="rotate(0,77.5,23.5)"/><path d="M 73 38.285714285714285h 4.5a 3 3, 0, 0, 1, 0 6.428571428571429h -4.5v -6.428571428571429z" transform="rotate(-90,77.5,41.5)"/><path d="M 73 47.285714285714285v 6.428571428571429h 9v -6.428571428571429z" transform="rotate(90,77.5,50.5)"/><path d="M 73 56.285714285714285h 4.5a 3 3, 0, 0, 1, 0 6.428571428571429h -4.5v -6.428571428571429z" transform="rotate(90,77.5,59.5)"/><circle cx="77.5" cy="77.5" r="3" transform="rotate(0,77.5,77.5)"/><circle cx="77.5" cy="104.5" r="3" transform="rotate(0,77.5,104.5)"/><path d="M 73 146.28571428571428h 4.5a 3 3, 0, 0, 1, 0 6.428571428571429h -4.5v -6.428571428571429z" transform="rotate(-90,77.5,149.5)"/><path d="M 73 155.28571428571428v 6.428571428571429h 9v -6.428571428571429z" transform="rotate(90,77.5,158.5)"/><path d="M 73 164.28571428571428h 4.5a 3 3, 0, 0, 1, 0 6.428571428571429h -4.5v -6.428571428571429z" transform="rotate(90,77.5,167.5)"/><path d="M 73 182.28571428571428h 4.5a 3 3, 0, 0, 1, 0 6.428571428571429h -4.5v -6.428571428571429z" transform="rotate(-90,77.5,185.5)"/><path d="M 73 191.28571428571428h 4.5a 3 3, 0, 0, 1, 0 6.428571428571429h -4.5v -6.428571428571429z" transform="rotate(90,77.5,194.5)"/><circle cx="77.5" cy="212.5" r="3" transform="rotate(0,77.5,212.5)"/><circle cx="77.5" cy="230.5" r="3" transform="rotate(0,77.5,230.5)"/><circle cx="77.5" cy="266.5" r="3" transform="rotate(0,77.5,266.5)"/><circle cx="77.5" cy="293.5" r="3" transform="rotate(0,77.5,293.5)"/><path d="M 82 20.285714285714285h 4.5a 3 3, 0, 0, 1, 0 6.428571428571429h -4.5v -6.428571428571429z" transform="rotate(-90,86.5,23.5)"/><path d="M 82 29.285714285714285h 4.5a 3 3, 0, 0, 1, 0 6.428571428571429h -4.5v -6.428571428571429z" transform="rotate(90,86.5,32.5)"/><circle cx="86.5" cy="68.5" r="3" transform="rotate(0,86.5,68.5)"/><path d="M 82 83.28571428571429h 4.5a 3 3, 0, 0, 1, 0 6.428571428571429h -4.5v -6.428571428571429z" transform="rotate(-90,86.5,86.5)"/><path d="M 82 92.28571428571429h 4.5a 3 3, 0, 0, 1, 0 6.428571428571429h -4.5v -6.428571428571429z" transform="rotate(90,86.5,95.5)"/><circle cx="86.5" cy="149.5" r="3" transform="rotate(0,86.5,149.5)"/><path d="M 82 173.28571428571428h 4.5a 3 3, 0, 0, 1, 0 6.428571428571429h -4.5v -6.428571428571429z" transform="rotate(-90,86.5,176.5)"/><path d="M 82 182.28571428571428v 6.428571428571429h 9v -6.428571428571429z" transform="rotate(90,86.5,185.5)"/><path d="M 82 191.28571428571428h 4.5a 3 3, 0, 0, 1, 0 6.428571428571429h -4.5v -6.428571428571429z" transform="rotate(90,86.5,194.5)"/><circle cx="86.5" cy="239.5" r="3" transform="rotate(0,86.5,239.5)"/><circle cx="86.5" cy="266.5" r="3" transform="rotate(0,86.5,266.5)"/><circle cx="86.5" cy="293.5" r="3" transform="rotate(0,86.5,293.5)"/><circle cx="95.5" cy="14.5" r="3" transform="rotate(0,95.5,14.5)"/><path d="M 91 29.285714285714285h 4.5a 3 3, 0, 0, 1, 0 6.428571428571429h -4.5v -6.428571428571429z" transform="rotate(-90,95.5,32.5)"/><path d="M 91 38.285714285714285v 6.428571428571429h 9v -6.428571428571429z" transform="rotate(90,95.5,41.5)"/><path d="M 91 47.285714285714285v 6.428571428571429h 9v -6.428571428571429z" transform="rotate(90,95.5,50.5)"/><path d="M 91 56.285714285714285h 4.5a 3 3, 0, 0, 1, 0 6.428571428571429h -4.5v -6.428571428571429z" transform="rotate(90,95.5,59.5)"/><path d="M 91 92.28571428571429h 4.5a 3 3, 0, 0, 1, 0 6.428571428571429h -4.5v -6.428571428571429z" transform="rotate(-90,95.5,95.5)"/><path d="M 91 101.28571428571429v 6.428571428571429h 9v -6.428571428571429z" transform="rotate(90,95.5,104.5)"/><path d="M 91 110.28571428571429h 4.5a 3 3, 0, 0, 1, 0 6.428571428571429h -4.5v -6.428571428571429z" transform="rotate(90,95.5,113.5)"/><circle cx="95.5" cy="131.5" r="3" transform="rotate(0,95.5,131.5)"/><circle cx="95.5" cy="149.5" r="3" transform="rotate(0,95.5,149.5)"/><circle cx="95.5" cy="203.5" r="3" transform="rotate(0,95.5,203.5)"/><path d="M 91 218.28571428571428h 4.5a 3 3, 0, 0, 1, 0 6.428571428571429h -4.5v -6.428571428571429z" transform="rotate(-90,95.5,221.5)"/><path d="M 91 227.28571428571428h 4.5a 3 3, 0, 0, 1, 0 6.428571428571429h -4.5v -6.428571428571429z" transform="rotate(90,95.5,230.5)"/><path d="M 91 254.28571428571428h 4.5a 3 3, 0, 0, 1, 0 6.428571428571429h -4.5v -6.428571428571429z" transform="rotate(-90,95.5,257.5)"/><path d="M 91 263.2857142857143h 4.5a 3 3, 0, 0, 1, 0 6.428571428571429h -4.5v -6.428571428571429z" transform="rotate(90,95.5,266.5)"/><path d="M 91 281.2857142857143h 4.5a 3 3, 0, 0, 1, 0 6.428571428571429h -4.5v -6.428571428571429z" transform="rotate(-90,95.5,284.5)"/><path d="M 91 290.2857142857143h 4.5a 3 3, 0, 0, 1, 0 6.428571428571429h -4.5v -6.428571428571429z" transform="rotate(90,95.5,293.5)"/><path d="M 100 11.285714285714286h 4.5a 3 3, 0, 0, 1, 0 6.428571428571429h -4.5v -6.428571428571429z" transform="rotate(-90,104.5,14.5)"/><path d="M 100 20.285714285714285v 6.428571428571429h 9v -6.428571428571429z" transform="rotate(90,104.5,23.5)"/><path d="M 100 29.285714285714285h 4.5a 3 3, 0, 0, 1, 0 6.428571428571429h -4.5v -6.428571428571429z" transform="rotate(90,104.5,32.5)"/><circle cx="104.5" cy="50.5" r="3" transform="rotate(0,104.5,50.5)"/><circle cx="104.5" cy="68.5" r="3" transform="rotate(0,104.5,68.5)"/><circle cx="104.5" cy="86.5" r="3" transform="rotate(0,104.5,86.5)"/><circle cx="104.5" cy="104.5" r="3" transform="rotate(0,104.5,104.5)"/><path d="M 100 119.28571428571429h 4.5a 3 3, 0, 0, 1, 0 6.428571428571429h -4.5v -6.428571428571429z" transform="rotate(-90,104.5,122.5)"/><path d="M 100 128.28571428571428h 4.5a 3 3, 0, 0, 1, 0 6.428571428571429h -4.5v -6.428571428571429z" transform="rotate(90,104.5,131.5)"/><path d="M 100 146.28571428571428h 4.5a 3 3, 0, 0, 1, 0 6.428571428571429h -4.5v -6.428571428571429z" transform="rotate(-90,104.5,149.5)"/><path d="M 100 155.28571428571428v 6.428571428571429h 9v -6.428571428571429z" transform="rotate(90,104.5,158.5)"/><path d="M 100 164.28571428571428v 6.428571428571429h 9v -6.428571428571429z" transform="rotate(90,104.5,167.5)"/><path d="M 100 173.28571428571428v 6.428571428571429h 9v -6.428571428571429z" transform="rotate(90,104.5,176.5)"/><path d="M 100 182.28571428571428v 6.428571428571429h 9v -6.428571428571429z" transform="rotate(90,104.5,185.5)"/><path d="M 100 191.28571428571428v 6.428571428571429h 9v -6.428571428571429z" transform="rotate(90,104.5,194.5)"/><path d="M 100 200.28571428571428v 6.428571428571429h 9v -6.428571428571429z" transform="rotate(90,104.5,203.5)"/><path d="M 100 209.28571428571428h 4.5a 3 3, 0, 0, 1, 0 6.428571428571429h -4.5v -6.428571428571429z" transform="rotate(90,104.5,212.5)"/><circle cx="113.5" cy="59.5" r="3" transform="rotate(0,113.5,59.5)"/><circle cx="113.5" cy="95.5" r="3" transform="rotate(0,113.5,95.5)"/><path d="M 109 119.28571428571429h 4.5a 3 3, 0, 0, 1, 0 6.428571428571429h -4.5v -6.428571428571429z" transform="rotate(-90,113.5,122.5)"/><path d="M 109 128.28571428571428v 6.428571428571429h 9v -6.428571428571429z" transform="rotate(90,113.5,131.5)"/><path d="M 109 137.28571428571428v 6.428571428571429h 9v -6.428571428571429z" transform="rotate(90,113.5,140.5)"/><path d="M 109 146.28571428571428h 4.5a 3 3, 0, 0, 1, 0 6.428571428571429h -4.5v -6.428571428571429z" transform="rotate(90,113.5,149.5)"/><circle cx="113.5" cy="167.5" r="3" transform="rotate(0,113.5,167.5)"/><circle cx="113.5" cy="185.5" r="3" transform="rotate(0,113.5,185.5)"/><path d="M 109 200.28571428571428h 4.5a 3 3, 0, 0, 1, 0 6.428571428571429h -4.5v -6.428571428571429z" transform="rotate(-90,113.5,203.5)"/><path d="M 109 209.28571428571428h 4.5a 3 3, 0, 0, 1, 0 6.428571428571429h -4.5v -6.428571428571429z" transform="rotate(90,113.5,212.5)"/><path d="M 109 227.28571428571428h 4.5a 3 3, 0, 0, 1, 0 6.428571428571429h -4.5v -6.428571428571429z" transform="rotate(-90,113.5,230.5)"/><path d="M 109 236.28571428571428h 4.5a 3 3, 0, 0, 1, 0 6.428571428571429h -4.5v -6.428571428571429z" transform="rotate(90,113.5,239.5)"/><circle cx="113.5" cy="257.5" r="3" transform="rotate(0,113.5,257.5)"/><circle cx="113.5" cy="293.5" r="3" transform="rotate(0,113.5,293.5)"/><path d="M 118 11.285714285714286h 4.5a 3 3, 0, 0, 1, 0 6.428571428571429h -4.5v -6.428571428571429z" transform="rotate(-90,122.5,14.5)"/><path d="M 118 20.285714285714285v 6.428571428571429h 9v -6.428571428571429z" transform="rotate(90,122.5,23.5)"/><path d="M 118 29.285714285714285v 6.428571428571429h 9v -6.428571428571429z" transform="rotate(90,122.5,32.5)"/><path d="M 118 38.285714285714285v 6.428571428571429h 9v -6.428571428571429z" transform="rotate(90,122.5,41.5)"/><path d="M 118 47.285714285714285h 4.5a 3 3, 0, 0, 1, 0 6.428571428571429h -4.5v -6.428571428571429z" transform="rotate(90,122.5,50.5)"/><circle cx="122.5" cy="68.5" r="3" transform="rotate(0,122.5,68.5)"/><circle cx="122.5" cy="86.5" r="3" transform="rotate(0,122.5,86.5)"/><circle cx="122.5" cy="113.5" r="3" transform="rotate(0,122.5,113.5)"/><path d="M 118 137.28571428571428h 4.5a 3 3, 0, 0, 1, 0 6.428571428571429h -4.5v -6.428571428571429z" transform="rotate(-90,122.5,140.5)"/><path d="M 118 146.28571428571428h 4.5a 3 3, 0, 0, 1, 0 6.428571428571429h -4.5v -6.428571428571429z" transform="rotate(90,122.5,149.5)"/><circle cx="122.5" cy="167.5" r="3" transform="rotate(0,122.5,167.5)"/><circle cx="122.5" cy="203.5" r="3" transform="rotate(0,122.5,203.5)"/><path d="M 118 218.28571428571428h 4.5a 3 3, 0, 0, 1, 0 6.428571428571429h -4.5v -6.428571428571429z" transform="rotate(-90,122.5,221.5)"/><path d="M 118 227.28571428571428v 6.428571428571429h 9v -6.428571428571429z" transform="rotate(90,122.5,230.5)"/><path d="M 118 236.28571428571428v 6.428571428571429h 9v -6.428571428571429z" transform="rotate(90,122.5,239.5)"/><path d="M 118 245.28571428571428h 4.5a 3 3, 0, 0, 1, 0 6.428571428571429h -4.5v -6.428571428571429z" transform="rotate(90,122.5,248.5)"/><path d="M 118 263.2857142857143h 4.5a 3 3, 0, 0, 1, 0 6.428571428571429h -4.5v -6.428571428571429z" transform="rotate(-90,122.5,266.5)"/><path d="M 118 272.2857142857143v 6.428571428571429h 9v -6.428571428571429z" transform="rotate(90,122.5,275.5)"/><path d="M 118 281.2857142857143v 6.428571428571429h 9v -6.428571428571429z" transform="rotate(90,122.5,284.5)"/><path d="M 118 290.2857142857143h 4.5a 3 3, 0, 0, 1, 0 6.428571428571429h -4.5v -6.428571428571429z" transform="rotate(90,122.5,293.5)"/><path d="M 127 20.285714285714285h 4.5a 3 3, 0, 0, 1, 0 6.428571428571429h -4.5v -6.428571428571429z" transform="rotate(-90,131.5,23.5)"/><path d="M 127 29.285714285714285v 6.428571428571429h 9v -6.428571428571429z" transform="rotate(90,131.5,32.5)"/><path d="M 127 38.285714285714285h 4.5a 3 3, 0, 0, 1, 0 6.428571428571429h -4.5v -6.428571428571429z" transform="rotate(90,131.5,41.5)"/><circle cx="131.5" cy="59.5" r="3" transform="rotate(0,131.5,59.5)"/><path d="M 127 74.28571428571429h 4.5a 3 3, 0, 0, 1, 0 6.428571428571429h -4.5v -6.428571428571429z" transform="rotate(-90,131.5,77.5)"/><path d="M 127 83.28571428571429h 4.5a 3 3, 0, 0, 1, 0 6.428571428571429h -4.5v -6.428571428571429z" transform="rotate(90,131.5,86.5)"/><circle cx="131.5" cy="104.5" r="3" transform="rotate(0,131.5,104.5)"/><path d="M 127 119.28571428571429h 4.5a 3 3, 0, 0, 1, 0 6.428571428571429h -4.5v -6.428571428571429z" transform="rotate(-90,131.5,122.5)"/><path d="M 127 128.28571428571428h 4.5a 3 3, 0, 0, 1, 0 6.428571428571429h -4.5v -6.428571428571429z" transform="rotate(90,131.5,131.5)"/><path d="M 127 164.28571428571428h 4.5a 3 3, 0, 0, 1, 0 6.428571428571429h -4.5v -6.428571428571429z" transform="rotate(-90,131.5,167.5)"/><path d="M 127 173.28571428571428h 4.5a 3 3, 0, 0, 1, 0 6.428571428571429h -4.5v -6.428571428571429z" transform="rotate(90,131.5,176.5)"/><circle cx="131.5" cy="194.5" r="3" transform="rotate(0,131.5,194.5)"/><circle cx="131.5" cy="230.5" r="3" transform="rotate(0,131.5,230.5)"/><circle cx="131.5" cy="248.5" r="3" transform="rotate(0,131.5,248.5)"/><path d="M 127 281.2857142857143h 4.5a 3 3, 0, 0, 1, 0 6.428571428571429h -4.5v -6.428571428571429z" transform="rotate(-90,131.5,284.5)"/><path d="M 127 290.2857142857143h 4.5a 3 3, 0, 0, 1, 0 6.428571428571429h -4.5v -6.428571428571429z" transform="rotate(90,131.5,293.5)"/><path d="M 136 2.2857142857142856h 4.5a 3 3, 0, 0, 1, 0 6.428571428571429h -4.5v -6.428571428571429z" transform="rotate(-90,140.5,5.5)"/><path d="M 136 11.285714285714286h 4.5a 3 3, 0, 0, 1, 0 6.428571428571429h -4.5v -6.428571428571429z" transform="rotate(90,140.5,14.5)"/><circle cx="140.5" cy="32.5" r="3" transform="rotate(0,140.5,32.5)"/><circle cx="140.5" cy="50.5" r="3" transform="rotate(0,140.5,50.5)"/><path d="M 136 74.28571428571429h 4.5a 3 3, 0, 0, 1, 0 6.428571428571429h -4.5v -6.428571428571429z" transform="rotate(-90,140.5,77.5)"/><path d="M 136 83.28571428571429v 6.428571428571429h 9v -6.428571428571429z" transform="rotate(90,140.5,86.5)"/><path d="M 136 92.28571428571429h 4.5a 3 3, 0, 0, 1, 0 6.428571428571429h -4.5v -6.428571428571429z" transform="rotate(90,140.5,95.5)"/><circle cx="140.5" cy="149.5" r="3" transform="rotate(0,140.5,149.5)"/><circle cx="140.5" cy="167.5" r="3" transform="rotate(0,140.5,167.5)"/><path d="M 136 182.28571428571428h 4.5a 3 3, 0, 0, 1, 0 6.428571428571429h -4.5v -6.428571428571429z" transform="rotate(-90,140.5,185.5)"/><path d="M 136 191.28571428571428v 6.428571428571429h 9v -6.428571428571429z" transform="rotate(90,140.5,194.5)"/><path d="M 136 200.28571428571428v 6.428571428571429h 9v -6.428571428571429z" transform="rotate(90,140.5,203.5)"/><path d="M 136 209.28571428571428v 6.428571428571429h 9v -6.428571428571429z" transform="rotate(90,140.5,212.5)"/><path d="M 136 218.28571428571428h 4.5a 3 3, 0, 0, 1, 0 6.428571428571429h -4.5v -6.428571428571429z" transform="rotate(90,140.5,221.5)"/><path d="M 136 236.28571428571428h 4.5a 3 3, 0, 0, 1, 0 6.428571428571429h -4.5v -6.428571428571429z" transform="rotate(-90,140.5,239.5)"/><path d="M 136 245.28571428571428v 6.428571428571429h 9v -6.428571428571429z" transform="rotate(90,140.5,248.5)"/><path d="M 136 254.28571428571428h 4.5a 3 3, 0, 0, 1, 0 6.428571428571429h -4.5v -6.428571428571429z" transform="rotate(90,140.5,257.5)"/><circle cx="149.5" cy="5.5" r="3" transform="rotate(0,149.5,5.5)"/><path d="M 145 47.285714285714285h 4.5a 3 3, 0, 0, 1, 0 6.428571428571429h -4.5v -6.428571428571429z" transform="rotate(-90,149.5,50.5)"/><path d="M 145 56.285714285714285h 4.5a 3 3, 0, 0, 1, 0 6.428571428571429h -4.5v -6.428571428571429z" transform="rotate(90,149.5,59.5)"/><circle cx="149.5" cy="77.5" r="3" transform="rotate(0,149.5,77.5)"/><circle cx="149.5" cy="104.5" r="3" transform="rotate(0,149.5,104.5)"/><circle cx="149.5" cy="122.5" r="3" transform="rotate(0,149.5,122.5)"/><circle cx="149.5" cy="140.5" r="3" transform="rotate(0,149.5,140.5)"/><path d="M 145 155.28571428571428h 4.5a 3 3, 0, 0, 1, 0 6.428571428571429h -4.5v -6.428571428571429z" transform="rotate(-90,149.5,158.5)"/><path d="M 145 164.28571428571428v 6.428571428571429h 9v -6.428571428571429z" transform="rotate(90,149.5,167.5)"/><path d="M 145 173.28571428571428h 4.5a 3 3, 0, 0, 1, 0 6.428571428571429h -4.5v -6.428571428571429z" transform="rotate(90,149.5,176.5)"/><path d="M 145 191.28571428571428h 4.5a 3 3, 0, 0, 1, 0 6.428571428571429h -4.5v -6.428571428571429z" transform="rotate(-90,149.5,194.5)"/><path d="M 145 200.28571428571428v 6.428571428571429h 9v -6.428571428571429z" transform="rotate(90,149.5,203.5)"/><path d="M 145 209.28571428571428h 4.5a 3 3, 0, 0, 1, 0 6.428571428571429h -4.5v -6.428571428571429z" transform="rotate(90,149.5,212.5)"/><path d="M 145 227.28571428571428h 4.5a 3 3, 0, 0, 1, 0 6.428571428571429h -4.5v -6.428571428571429z" transform="rotate(-90,149.5,230.5)"/><path d="M 145 236.28571428571428h 4.5a 3 3, 0, 0, 1, 0 6.428571428571429h -4.5v -6.428571428571429z" transform="rotate(90,149.5,239.5)"/><circle cx="149.5" cy="284.5" r="3" transform="rotate(0,149.5,284.5)"/><path d="M 154 2.2857142857142856h 4.5a 3 3, 0, 0, 1, 0 6.428571428571429h -4.5v -6.428571428571429z" transform="rotate(-90,158.5,5.5)"/><path d="M 154 11.285714285714286h 4.5a 3 3, 0, 0, 1, 0 6.428571428571429h -4.5v -6.428571428571429z" transform="rotate(90,158.5,14.5)"/><circle cx="158.5" cy="41.5" r="3" transform="rotate(0,158.5,41.5)"/><path d="M 154 92.28571428571429h 4.5a 3 3, 0, 0, 1, 0 6.428571428571429h -4.5v -6.428571428571429z" transform="rotate(-90,158.5,95.5)"/><path d="M 154 101.28571428571429h 4.5a 3 3, 0, 0, 1, 0 6.428571428571429h -4.5v -6.428571428571429z" transform="rotate(90,158.5,104.5)"/><path d="M 154 128.28571428571428h 4.5a 3 3, 0, 0, 1, 0 6.428571428571429h -4.5v -6.428571428571429z" transform="rotate(-90,158.5,131.5)"/><path d="M 154 137.28571428571428v 6.428571428571429h 9v -6.428571428571429z" transform="rotate(90,158.5,140.5)"/><path d="M 154 146.28571428571428h 4.5a 3 3, 0, 0, 1, 0 6.428571428571429h -4.5v -6.428571428571429z" transform="rotate(90,158.5,149.5)"/><path d="M 154 173.28571428571428h 4.5a 3 3, 0, 0, 1, 0 6.428571428571429h -4.5v -6.428571428571429z" transform="rotate(-90,158.5,176.5)"/><path d="M 154 182.28571428571428v 6.428571428571429h 9v -6.428571428571429z" transform="rotate(90,158.5,185.5)"/><path d="M 154 191.28571428571428h 4.5a 3 3, 0, 0, 1, 0 6.428571428571429h -4.5v -6.428571428571429z" transform="rotate(90,158.5,194.5)"/><path d="M 154 227.28571428571428h 4.5a 3 3, 0, 0, 1, 0 6.428571428571429h -4.5v -6.428571428571429z" transform="rotate(-90,158.5,230.5)"/><path d="M 154 236.28571428571428v 6.428571428571429h 9v -6.428571428571429z" transform="rotate(90,158.5,239.5)"/><path d="M 154 245.28571428571428h 4.5a 3 3, 0, 0, 1, 0 6.428571428571429h -4.5v -6.428571428571429z" transform="rotate(90,158.5,248.5)"/><path d="M 154 263.2857142857143h 4.5a 3 3, 0, 0, 1, 0 6.428571428571429h -4.5v -6.428571428571429z" transform="rotate(-90,158.5,266.5)"/><path d="M 154 272.2857142857143v 6.428571428571429h 9v -6.428571428571429z" transform="rotate(90,158.5,275.5)"/><path d="M 154 281.2857142857143h 4.5a 3 3, 0, 0, 1, 0 6.428571428571429h -4.5v -6.428571428571429z" transform="rotate(90,158.5,284.5)"/><path d="M 163 2.2857142857142856h 4.5a 3 3, 0, 0, 1, 0 6.428571428571429h -4.5v -6.428571428571429z" transform="rotate(-90,167.5,5.5)"/><path d="M 163 11.285714285714286h 4.5a 3 3, 0, 0, 1, 0 6.428571428571429h -4.5v -6.428571428571429z" transform="rotate(90,167.5,14.5)"/><path d="M 163 29.285714285714285h 4.5a 3 3, 0, 0, 1, 0 6.428571428571429h -4.5v -6.428571428571429z" transform="rotate(-90,167.5,32.5)"/><path d="M 163 38.285714285714285h 4.5a 3 3, 0, 0, 1, 0 6.428571428571429h -4.5v -6.428571428571429z" transform="rotate(90,167.5,41.5)"/><path d="M 163 56.285714285714285h 4.5a 3 3, 0, 0, 1, 0 6.428571428571429h -4.5v -6.428571428571429z" transform="rotate(-90,167.5,59.5)"/><path d="M 163 65.28571428571429h 4.5a 3 3, 0, 0, 1, 0 6.428571428571429h -4.5v -6.428571428571429z" transform="rotate(90,167.5,68.5)"/><path d="M 163 83.28571428571429h 4.5a 3 3, 0, 0, 1, 0 6.428571428571429h -4.5v -6.428571428571429z" transform="rotate(-90,167.5,86.5)"/><path d="M 163 92.28571428571429h 4.5a 3 3, 0, 0, 1, 0 6.428571428571429h -4.5v -6.428571428571429z" transform="rotate(90,167.5,95.5)"/><circle cx="167.5" cy="131.5" r="3" transform="rotate(0,167.5,131.5)"/><path d="M 163 164.28571428571428h 4.5a 3 3, 0, 0, 1, 0 6.428571428571429h -4.5v -6.428571428571429z" transform="rotate(-90,167.5,167.5)"/><path d="M 163 173.28571428571428v 6.428571428571429h 9v -6.428571428571429z" transform="rotate(90,167.5,176.5)"/><path d="M 163 182.28571428571428v 6.428571428571429h 9v -6.428571428571429z" transform="rotate(90,167.5,185.5)"/><path d="M 163 191.28571428571428v 6.428571428571429h 9v -6.428571428571429z" transform="rotate(90,167.5,194.5)"/><path d="M 163 200.28571428571428h 4.5a 3 3, 0, 0, 1, 0 6.428571428571429h -4.5v -6.428571428571429z" transform="rotate(90,167.5,203.5)"/><circle cx="167.5" cy="230.5" r="3" transform="rotate(0,167.5,230.5)"/><path d="M 163 245.28571428571428h 4.5a 3 3, 0, 0, 1, 0 6.428571428571429h -4.5v -6.428571428571429z" transform="rotate(-90,167.5,248.5)"/><path d="M 163 254.28571428571428h 4.5a 3 3, 0, 0, 1, 0 6.428571428571429h -4.5v -6.428571428571429z" transform="rotate(90,167.5,257.5)"/><path d="M 163 272.2857142857143h 4.5a 3 3, 0, 0, 1, 0 6.428571428571429h -4.5v -6.428571428571429z" transform="rotate(-90,167.5,275.5)"/><path d="M 163 281.2857142857143v 6.428571428571429h 9v -6.428571428571429z" transform="rotate(90,167.5,284.5)"/><path d="M 163 290.2857142857143h 4.5a 3 3, 0, 0, 1, 0 6.428571428571429h -4.5v -6.428571428571429z" transform="rotate(90,167.5,293.5)"/><circle cx="176.5" cy="5.5" r="3" transform="rotate(0,176.5,5.5)"/><path d="M 172 65.28571428571429h 4.5a 3 3, 0, 0, 1, 0 6.428571428571429h -4.5v -6.428571428571429z" transform="rotate(-90,176.5,68.5)"/><path d="M 172 74.28571428571429h 4.5a 3 3, 0, 0, 1, 0 6.428571428571429h -4.5v -6.428571428571429z" transform="rotate(90,176.5,77.5)"/><circle cx="176.5" cy="95.5" r="3" transform="rotate(0,176.5,95.5)"/><circle cx="176.5" cy="131.5" r="3" transform="rotate(0,176.5,131.5)"/><path d="M 172 173.28571428571428h 4.5a 3 3, 0, 0, 1, 0 6.428571428571429h -4.5v -6.428571428571429z" transform="rotate(-90,176.5,176.5)"/><path d="M 172 182.28571428571428v 6.428571428571429h 9v -6.428571428571429z" transform="rotate(90,176.5,185.5)"/><path d="M 172 191.28571428571428h 4.5a 3 3, 0, 0, 1, 0 6.428571428571429h -4.5v -6.428571428571429z" transform="rotate(90,176.5,194.5)"/><path d="M 172 227.28571428571428h 4.5a 3 3, 0, 0, 1, 0 6.428571428571429h -4.5v -6.428571428571429z" transform="rotate(-90,176.5,230.5)"/><path d="M 172 236.28571428571428h 4.5a 3 3, 0, 0, 1, 0 6.428571428571429h -4.5v -6.428571428571429z" transform="rotate(90,176.5,239.5)"/><circle cx="176.5" cy="257.5" r="3" transform="rotate(0,176.5,257.5)"/><circle cx="176.5" cy="293.5" r="3" transform="rotate(0,176.5,293.5)"/><path d="M 181 11.285714285714286h 4.5a 3 3, 0, 0, 1, 0 6.428571428571429h -4.5v -6.428571428571429z" transform="rotate(-90,185.5,14.5)"/><path d="M 181 20.285714285714285h 4.5a 3 3, 0, 0, 1, 0 6.428571428571429h -4.5v -6.428571428571429z" transform="rotate(90,185.5,23.5)"/><circle cx="185.5" cy="41.5" r="3" transform="rotate(0,185.5,41.5)"/><path d="M 181 56.285714285714285h 4.5a 3 3, 0, 0, 1, 0 6.428571428571429h -4.5v -6.428571428571429z" transform="rotate(-90,185.5,59.5)"/><path d="M 181 65.28571428571429h 4.5a 3 3, 0, 0, 1, 0 6.428571428571429h -4.5v -6.428571428571429z" transform="rotate(90,185.5,68.5)"/><path d="M 181 83.28571428571429h 4.5a 3 3, 0, 0, 1, 0 6.428571428571429h -4.5v -6.428571428571429z" transform="rotate(-90,185.5,86.5)"/><path d="M 181 92.28571428571429h 4.5a 3 3, 0, 0, 1, 0 6.428571428571429h -4.5v -6.428571428571429z" transform="rotate(90,185.5,95.5)"/><path d="M 181 119.28571428571429h 4.5a 3 3, 0, 0, 1, 0 6.428571428571429h -4.5v -6.428571428571429z" transform="rotate(-90,185.5,122.5)"/><path d="M 181 128.28571428571428h 4.5a 3 3, 0, 0, 1, 0 6.428571428571429h -4.5v -6.428571428571429z" transform="rotate(90,185.5,131.5)"/><circle cx="185.5" cy="149.5" r="3" transform="rotate(0,185.5,149.5)"/><path d="M 181 191.28571428571428h 4.5a 3 3, 0, 0, 1, 0 6.428571428571429h -4.5v -6.428571428571429z" transform="rotate(-90,185.5,194.5)"/><path d="M 181 200.28571428571428h 4.5a 3 3, 0, 0, 1, 0 6.428571428571429h -4.5v -6.428571428571429z" transform="rotate(90,185.5,203.5)"/><circle cx="185.5" cy="230.5" r="3" transform="rotate(0,185.5,230.5)"/><circle cx="185.5" cy="266.5" r="3" transform="rotate(0,185.5,266.5)"/><circle cx="185.5" cy="293.5" r="3" transform="rotate(0,185.5,293.5)"/><circle cx="194.5" cy="23.5" r="3" transform="rotate(0,194.5,23.5)"/><circle cx="194.5" cy="50.5" r="3" transform="rotate(0,194.5,50.5)"/><path d="M 190 83.28571428571429h 4.5a 3 3, 0, 0, 1, 0 6.428571428571429h -4.5v -6.428571428571429z" transform="rotate(-90,194.5,86.5)"/><path d="M 190 92.28571428571429v 6.428571428571429h 9v -6.428571428571429z" transform="rotate(90,194.5,95.5)"/><path d="M 190 101.28571428571429v 6.428571428571429h 9v -6.428571428571429z" transform="rotate(90,194.5,104.5)"/><path d="M 190 110.28571428571429h 4.5a 3 3, 0, 0, 1, 0 6.428571428571429h -4.5v -6.428571428571429z" transform="rotate(90,194.5,113.5)"/><path d="M 190 137.28571428571428h 4.5a 3 3, 0, 0, 1, 0 6.428571428571429h -4.5v -6.428571428571429z" transform="rotate(-90,194.5,140.5)"/><path d="M 190 146.28571428571428h 4.5a 3 3, 0, 0, 1, 0 6.428571428571429h -4.5v -6.428571428571429z" transform="rotate(90,194.5,149.5)"/><circle cx="194.5" cy="167.5" r="3" transform="rotate(0,194.5,167.5)"/><circle cx="194.5" cy="212.5" r="3" transform="rotate(0,194.5,212.5)"/><circle cx="194.5" cy="230.5" r="3" transform="rotate(0,194.5,230.5)"/><circle cx="194.5" cy="266.5" r="3" transform="rotate(0,194.5,266.5)"/><path d="M 190 281.2857142857143h 4.5a 3 3, 0, 0, 1, 0 6.428571428571429h -4.5v -6.428571428571429z" transform="rotate(-90,194.5,284.5)"/><path d="M 190 290.2857142857143h 4.5a 3 3, 0, 0, 1, 0 6.428571428571429h -4.5v -6.428571428571429z" transform="rotate(90,194.5,293.5)"/><circle cx="203.5" cy="5.5" r="3" transform="rotate(0,203.5,5.5)"/><circle cx="203.5" cy="23.5" r="3" transform="rotate(0,203.5,23.5)"/><circle cx="203.5" cy="59.5" r="3" transform="rotate(0,203.5,59.5)"/><circle cx="203.5" cy="77.5" r="3" transform="rotate(0,203.5,77.5)"/><path d="M 199 137.28571428571428h 4.5a 3 3, 0, 0, 1, 0 6.428571428571429h -4.5v -6.428571428571429z" transform="rotate(-90,203.5,140.5)"/><path d="M 199 146.28571428571428v 6.428571428571429h 9v -6.428571428571429z" transform="rotate(90,203.5,149.5)"/><path d="M 199 155.28571428571428v 6.428571428571429h 9v -6.428571428571429z" transform="rotate(90,203.5,158.5)"/><path d="M 199 164.28571428571428v 6.428571428571429h 9v -6.428571428571429z" transform="rotate(90,203.5,167.5)"/><path d="M 199 173.28571428571428v 6.428571428571429h 9v -6.428571428571429z" transform="rotate(90,203.5,176.5)"/><path d="M 199 182.28571428571428h 4.5a 3 3, 0, 0, 1, 0 6.428571428571429h -4.5v -6.428571428571429z" transform="rotate(90,203.5,185.5)"/><circle cx="203.5" cy="203.5" r="3" transform="rotate(0,203.5,203.5)"/><circle cx="203.5" cy="239.5" r="3" transform="rotate(0,203.5,239.5)"/><path d="M 199 281.2857142857143h 4.5a 3 3, 0, 0, 1, 0 6.428571428571429h -4.5v -6.428571428571429z" transform="rotate(-90,203.5,284.5)"/><path d="M 199 290.2857142857143h 4.5a 3 3, 0, 0, 1, 0 6.428571428571429h -4.5v -6.428571428571429z" transform="rotate(90,203.5,293.5)"/><circle cx="212.5" cy="14.5" r="3" transform="rotate(0,212.5,14.5)"/><circle cx="212.5" cy="41.5" r="3" transform="rotate(0,212.5,41.5)"/><path d="M 208 110.28571428571429h 4.5a 3 3, 0, 0, 1, 0 6.428571428571429h -4.5v -6.428571428571429z" transform="rotate(-90,212.5,113.5)"/><path d="M 208 119.28571428571429h 4.5a 3 3, 0, 0, 1, 0 6.428571428571429h -4.5v -6.428571428571429z" transform="rotate(90,212.5,122.5)"/><circle cx="212.5" cy="149.5" r="3" transform="rotate(0,212.5,149.5)"/><path d="M 208 164.28571428571428h 4.5a 3 3, 0, 0, 1, 0 6.428571428571429h -4.5v -6.428571428571429z" transform="rotate(-90,212.5,167.5)"/><path d="M 208 173.28571428571428h 4.5a 3 3, 0, 0, 1, 0 6.428571428571429h -4.5v -6.428571428571429z" transform="rotate(90,212.5,176.5)"/><circle cx="212.5" cy="194.5" r="3" transform="rotate(0,212.5,194.5)"/><circle cx="212.5" cy="212.5" r="3" transform="rotate(0,212.5,212.5)"/><circle cx="212.5" cy="230.5" r="3" transform="rotate(0,212.5,230.5)"/><path d="M 208 254.28571428571428h 4.5a 3 3, 0, 0, 1, 0 6.428571428571429h -4.5v -6.428571428571429z" transform="rotate(-90,212.5,257.5)"/><path d="M 208 263.2857142857143h 4.5a 3 3, 0, 0, 1, 0 6.428571428571429h -4.5v -6.428571428571429z" transform="rotate(90,212.5,266.5)"/><path d="M 208 281.2857142857143h 4.5a 3 3, 0, 0, 1, 0 6.428571428571429h -4.5v -6.428571428571429z" transform="rotate(-90,212.5,284.5)"/><path d="M 208 290.2857142857143h 4.5a 3 3, 0, 0, 1, 0 6.428571428571429h -4.5v -6.428571428571429z" transform="rotate(90,212.5,293.5)"/><circle cx="221.5" cy="5.5" r="3" transform="rotate(0,221.5,5.5)"/><path d="M 217 38.285714285714285h 4.5a 3 3, 0, 0, 1, 0 6.428571428571429h -4.5v -6.428571428571429z" transform="rotate(-90,221.5,41.5)"/><path d="M 217 47.285714285714285v 6.428571428571429h 9v -6.428571428571429z" transform="rotate(90,221.5,50.5)"/><path d="M 217 56.285714285714285v 6.428571428571429h 9v -6.428571428571429z" transform="rotate(90,221.5,59.5)"/><path d="M 217 65.28571428571429h 4.5a 3 3, 0, 0, 1, 0 6.428571428571429h -4.5v -6.428571428571429z" transform="rotate(90,221.5,68.5)"/><circle cx="221.5" cy="104.5" r="3" transform="rotate(0,221.5,104.5)"/><circle cx="221.5" cy="140.5" r="3" transform="rotate(0,221.5,140.5)"/><path d="M 217 155.28571428571428h 4.5a 3 3, 0, 0, 1, 0 6.428571428571429h -4.5v -6.428571428571429z" transform="rotate(-90,221.5,158.5)"/><path d="M 217 164.28571428571428h 4.5a 3 3, 0, 0, 1, 0 6.428571428571429h -4.5v -6.428571428571429z" transform="rotate(90,221.5,167.5)"/><path d="M 217 182.28571428571428h 4.5a 3 3, 0, 0, 1, 0 6.428571428571429h -4.5v -6.428571428571429z" transform="rotate(-90,221.5,185.5)"/><path d="M 217 191.28571428571428h 4.5a 3 3, 0, 0, 1, 0 6.428571428571429h -4.5v -6.428571428571429z" transform="rotate(90,221.5,194.5)"/><path d="M 217 218.28571428571428h 4.5a 3 3, 0, 0, 1, 0 6.428571428571429h -4.5v -6.428571428571429z" transform="rotate(-90,221.5,221.5)"/><path d="M 217 227.28571428571428v 6.428571428571429h 9v -6.428571428571429z" transform="rotate(90,221.5,230.5)"/><path d="M 217 236.28571428571428v 6.428571428571429h 9v -6.428571428571429z" transform="rotate(90,221.5,239.5)"/><path d="M 217 245.28571428571428v 6.428571428571429h 9v -6.428571428571429z" transform="rotate(90,221.5,248.5)"/><path d="M 217 254.28571428571428h 4.5a 3 3, 0, 0, 1, 0 6.428571428571429h -4.5v -6.428571428571429z" transform="rotate(90,221.5,257.5)"/><circle cx="221.5" cy="284.5" r="3" transform="rotate(0,221.5,284.5)"/><circle cx="230.5" cy="77.5" r="3" transform="rotate(0,230.5,77.5)"/><path d="M 226 92.28571428571429h 4.5a 3 3, 0, 0, 1, 0 6.428571428571429h -4.5v -6.428571428571429z" transform="rotate(-90,230.5,95.5)"/><path d="M 226 101.28571428571429h 4.5a 3 3, 0, 0, 1, 0 6.428571428571429h -4.5v -6.428571428571429z" transform="rotate(90,230.5,104.5)"/><circle cx="230.5" cy="140.5" r="3" transform="rotate(0,230.5,140.5)"/><circle cx="230.5" cy="158.5" r="3" transform="rotate(0,230.5,158.5)"/><path d="M 226 173.28571428571428h 4.5a 3 3, 0, 0, 1, 0 6.428571428571429h -4.5v -6.428571428571429z" transform="rotate(-90,230.5,176.5)"/><path d="M 226 182.28571428571428h 4.5a 3 3, 0, 0, 1, 0 6.428571428571429h -4.5v -6.428571428571429z" transform="rotate(90,230.5,185.5)"/><path d="M 226 200.28571428571428h 4.5a 3 3, 0, 0, 1, 0 6.428571428571429h -4.5v -6.428571428571429z" transform="rotate(-90,230.5,203.5)"/><path d="M 226 209.28571428571428v 6.428571428571429h 9v -6.428571428571429z" transform="rotate(90,230.5,212.5)"/><path d="M 226 218.28571428571428h 4.5a 3 3, 0, 0, 1, 0 6.428571428571429h -4.5v -6.428571428571429z" transform="rotate(90,230.5,221.5)"/><circle cx="230.5" cy="257.5" r="3" transform="rotate(0,230.5,257.5)"/><circle cx="230.5" cy="275.5" r="3" transform="rotate(0,230.5,275.5)"/><circle cx="230.5" cy="293.5" r="3" transform="rotate(0,230.5,293.5)"/><path d="M 235 83.28571428571429h 4.5a 3 3, 0, 0, 1, 0 6.428571428571429h -4.5v -6.428571428571429z" transform="rotate(-90,239.5,86.5)"/><path d="M 235 92.28571428571429h 4.5a 3 3, 0, 0, 1, 0 6.428571428571429h -4.5v -6.428571428571429z" transform="rotate(90,239.5,95.5)"/><path d="M 235 128.28571428571428h 4.5a 3 3, 0, 0, 1, 0 6.428571428571429h -4.5v -6.428571428571429z" transform="rotate(-90,239.5,131.5)"/><path d="M 235 137.28571428571428h 4.5a 3 3, 0, 0, 1, 0 6.428571428571429h -4.5v -6.428571428571429z" transform="rotate(90,239.5,140.5)"/><circle cx="239.5" cy="158.5" r="3" transform="rotate(0,239.5,158.5)"/><path d="M 235 173.28571428571428h 4.5a 3 3, 0, 0, 1, 0 6.428571428571429h -4.5v -6.428571428571429z" transform="rotate(-90,239.5,176.5)"/><path d="M 235 182.28571428571428v 6.428571428571429h 9v -6.428571428571429z" transform="rotate(90,239.5,185.5)"/><path d="M 235 191.28571428571428h 4.5a 3 3, 0, 0, 1, 0 6.428571428571429h -4.5v -6.428571428571429z" transform="rotate(90,239.5,194.5)"/><circle cx="239.5" cy="221.5" r="3" transform="rotate(0,239.5,221.5)"/><circle cx="239.5" cy="239.5" r="3" transform="rotate(0,239.5,239.5)"/><path d="M 235 254.28571428571428h 4.5a 3 3, 0, 0, 1, 0 6.428571428571429h -4.5v -6.428571428571429z" transform="rotate(-90,239.5,257.5)"/><path d="M 235 263.2857142857143h 4.5a 3 3, 0, 0, 1, 0 6.428571428571429h -4.5v -6.428571428571429z" transform="rotate(90,239.5,266.5)"/><path d="M 235 281.2857142857143h 4.5a 3 3, 0, 0, 1, 0 6.428571428571429h -4.5v -6.428571428571429z" transform="rotate(-90,239.5,284.5)"/><path d="M 235 290.2857142857143h 4.5a 3 3, 0, 0, 1, 0 6.428571428571429h -4.5v -6.428571428571429z" transform="rotate(90,239.5,293.5)"/><path d="M 244 74.28571428571429h 4.5a 3 3, 0, 0, 1, 0 6.428571428571429h -4.5v -6.428571428571429z" transform="rotate(-90,248.5,77.5)"/><path d="M 244 83.28571428571429h 4.5a 3 3, 0, 0, 1, 0 6.428571428571429h -4.5v -6.428571428571429z" transform="rotate(90,248.5,86.5)"/><circle cx="248.5" cy="122.5" r="3" transform="rotate(0,248.5,122.5)"/><circle cx="248.5" cy="140.5" r="3" transform="rotate(0,248.5,140.5)"/><circle cx="248.5" cy="158.5" r="3" transform="rotate(0,248.5,158.5)"/><circle cx="248.5" cy="176.5" r="3" transform="rotate(0,248.5,176.5)"/><circle cx="248.5" cy="221.5" r="3" transform="rotate(0,248.5,221.5)"/><circle cx="248.5" cy="257.5" r="3" transform="rotate(0,248.5,257.5)"/><circle cx="248.5" cy="293.5" r="3" transform="rotate(0,248.5,293.5)"/><path d="M 253 74.28571428571429h 4.5a 3 3, 0, 0, 1, 0 6.428571428571429h -4.5v -6.428571428571429z" transform="rotate(-90,257.5,77.5)"/><path d="M 253 83.28571428571429h 4.5a 3 3, 0, 0, 1, 0 6.428571428571429h -4.5v -6.428571428571429z" transform="rotate(90,257.5,86.5)"/><circle cx="257.5" cy="113.5" r="3" transform="rotate(0,257.5,113.5)"/><path d="M 253 146.28571428571428h 4.5a 3 3, 0, 0, 1, 0 6.428571428571429h -4.5v -6.428571428571429z" transform="rotate(-90,257.5,149.5)"/><path d="M 253 155.28571428571428h 4.5a 3 3, 0, 0, 1, 0 6.428571428571429h -4.5v -6.428571428571429z" transform="rotate(90,257.5,158.5)"/><circle cx="257.5" cy="185.5" r="3" transform="rotate(0,257.5,185.5)"/><path d="M 253 218.28571428571428h 4.5a 3 3, 0, 0, 1, 0 6.428571428571429h -4.5v -6.428571428571429z" transform="rotate(-90,257.5,221.5)"/><path d="M 253 227.28571428571428v 6.428571428571429h 9v -6.428571428571429z" transform="rotate(90,257.5,230.5)"/><path d="M 253 236.28571428571428v 6.428571428571429h 9v -6.428571428571429z" transform="rotate(90,257.5,239.5)"/><path d="M 253 245.28571428571428v 6.428571428571429h 9v -6.428571428571429z" transform="rotate(90,257.5,248.5)"/><path d="M 253 254.28571428571428h 4.5a 3 3, 0, 0, 1, 0 6.428571428571429h -4.5v -6.428571428571429z" transform="rotate(90,257.5,257.5)"/><circle cx="257.5" cy="284.5" r="3" transform="rotate(0,257.5,284.5)"/><circle cx="266.5" cy="113.5" r="3" transform="rotate(0,266.5,113.5)"/><circle cx="266.5" cy="149.5" r="3" transform="rotate(0,266.5,149.5)"/><path d="M 262 164.28571428571428h 4.5a 3 3, 0, 0, 1, 0 6.428571428571429h -4.5v -6.428571428571429z" transform="rotate(-90,266.5,167.5)"/><path d="M 262 173.28571428571428v 6.428571428571429h 9v -6.428571428571429z" transform="rotate(90,266.5,176.5)"/><path d="M 262 182.28571428571428h 4.5a 3 3, 0, 0, 1, 0 6.428571428571429h -4.5v -6.428571428571429z" transform="rotate(90,266.5,185.5)"/><circle cx="266.5" cy="212.5" r="3" transform="rotate(0,266.5,212.5)"/><path d="M 262 254.28571428571428h 4.5a 3 3, 0, 0, 1, 0 6.428571428571429h -4.5v -6.428571428571429z" transform="rotate(-90,266.5,257.5)"/><path d="M 262 263.2857142857143v 6.428571428571429h 9v -6.428571428571429z" transform="rotate(90,266.5,266.5)"/><path d="M 262 272.2857142857143h 4.5a 3 3, 0, 0, 1, 0 6.428571428571429h -4.5v -6.428571428571429z" transform="rotate(90,266.5,275.5)"/><circle cx="275.5" cy="77.5" r="3" transform="rotate(0,275.5,77.5)"/><path d="M 271 119.28571428571429h 4.5a 3 3, 0, 0, 1, 0 6.428571428571429h -4.5v -6.428571428571429z" transform="rotate(-90,275.5,122.5)"/><path d="M 271 128.28571428571428v 6.428571428571429h 9v -6.428571428571429z" transform="rotate(90,275.5,131.5)"/><path d="M 271 137.28571428571428v 6.428571428571429h 9v -6.428571428571429z" transform="rotate(90,275.5,140.5)"/><path d="M 271 146.28571428571428h 4.5a 3 3, 0, 0, 1, 0 6.428571428571429h -4.5v -6.428571428571429z" transform="rotate(90,275.5,149.5)"/><circle cx="275.5" cy="167.5" r="3" transform="rotate(0,275.5,167.5)"/><path d="M 271 191.28571428571428h 4.5a 3 3, 0, 0, 1, 0 6.428571428571429h -4.5v -6.428571428571429z" transform="rotate(-90,275.5,194.5)"/><path d="M 271 200.28571428571428v 6.428571428571429h 9v -6.428571428571429z" transform="rotate(90,275.5,203.5)"/><path d="M 271 209.28571428571428h 4.5a 3 3, 0, 0, 1, 0 6.428571428571429h -4.5v -6.428571428571429z" transform="rotate(90,275.5,212.5)"/><circle cx="275.5" cy="230.5" r="3" transform="rotate(0,275.5,230.5)"/><path d="M 271 245.28571428571428h 4.5a 3 3, 0, 0, 1, 0 6.428571428571429h -4.5v -6.428571428571429z" transform="rotate(-90,275.5,248.5)"/><path d="M 271 254.28571428571428h 4.5a 3 3, 0, 0, 1, 0 6.428571428571429h -4.5v -6.428571428571429z" transform="rotate(90,275.5,257.5)"/><circle cx="275.5" cy="293.5" r="3" transform="rotate(0,275.5,293.5)"/><circle cx="284.5" cy="86.5" r="3" transform="rotate(0,284.5,86.5)"/><path d="M 280 110.28571428571429h 4.5a 3 3, 0, 0, 1, 0 6.428571428571429h -4.5v -6.428571428571429z" transform="rotate(-90,284.5,113.5)"/><path d="M 280 119.28571428571429h 4.5a 3 3, 0, 0, 1, 0 6.428571428571429h -4.5v -6.428571428571429z" transform="rotate(90,284.5,122.5)"/><path d="M 280 137.28571428571428h 4.5a 3 3, 0, 0, 1, 0 6.428571428571429h -4.5v -6.428571428571429z" transform="rotate(-90,284.5,140.5)"/><path d="M 280 146.28571428571428v 6.428571428571429h 9v -6.428571428571429z" transform="rotate(90,284.5,149.5)"/><path d="M 280 155.28571428571428v 6.428571428571429h 9v -6.428571428571429z" transform="rotate(90,284.5,158.5)"/><path d="M 280 164.28571428571428h 4.5a 3 3, 0, 0, 1, 0 6.428571428571429h -4.5v -6.428571428571429z" transform="rotate(90,284.5,167.5)"/><path d="M 280 209.28571428571428h 4.5a 3 3, 0, 0, 1, 0 6.428571428571429h -4.5v -6.428571428571429z" transform="rotate(-90,284.5,212.5)"/><path d="M 280 218.28571428571428h 4.5a 3 3, 0, 0, 1, 0 6.428571428571429h -4.5v -6.428571428571429z" transform="rotate(90,284.5,221.5)"/><circle cx="284.5" cy="248.5" r="3" transform="rotate(0,284.5,248.5)"/><circle cx="284.5" cy="284.5" r="3" transform="rotate(0,284.5,284.5)"/><path d="M 289 92.28571428571429h 4.5a 3 3, 0, 0, 1, 0 6.428571428571429h -4.5v -6.428571428571429z" transform="rotate(-90,293.5,95.5)"/><path d="M 289 101.28571428571429v 6.428571428571429h 9v -6.428571428571429z" transform="rotate(90,293.5,104.5)"/><path d="M 289 110.28571428571429h 4.5a 3 3, 0, 0, 1, 0 6.428571428571429h -4.5v -6.428571428571429z" transform="rotate(90,293.5,113.5)"/><circle cx="293.5" cy="131.5" r="3" transform="rotate(0,293.5,131.5)"/><circle cx="293.5" cy="167.5" r="3" transform="rotate(0,293.5,167.5)"/><path d="M 289 218.28571428571428h 4.5a 3 3, 0, 0, 1, 0 6.428571428571429h -4.5v -6.428571428571429z" transform="rotate(-90,293.5,221.5)"/><path d="M 289 227.28571428571428v 6.428571428571429h 9v -6.428571428571429z" transform="rotate(90,293.5,230.5)"/><path d="M 289 236.28571428571428v 6.428571428571429h 9v -6.428571428571429z" transform="rotate(90,293.5,239.5)"/><path d="M 289 245.28571428571428v 6.428571428571429h 9v -6.428571428571429z" transform="rotate(90,293.5,248.5)"/><path d="M 289 254.28571428571428h 4.5a 3 3, 0, 0, 1, 0 6.428571428571429h -4.5v -6.428571428571429z" transform="rotate(90,293.5,257.5)"/><path d="M 289 281.2857142857143h 4.5a 3 3, 0, 0, 1, 0 6.428571428571429h -4.5v -6.428571428571429z" transform="rotate(-90,293.5,284.5)"/><path d="M 289 290.2857142857143h 4.5a 3 3, 0, 0, 1, 0 6.428571428571429h -4.5v -6.428571428571429z" transform="rotate(90,293.5,293.5)"/></clipPath><linearGradient id="dot-color" gradientUnits="userSpaceOnUse" x1="1" y1="139" x2="298" y2="160"><stop offset="0%" stop-color="#d249a6"/><stop offset="100%" stop-color="#8659ed"/></linearGradient></defs><rect x="1" y="1" height="297" width="297" clip-path="url('#clip-path-dot-color')" fill="url('#dot-color')"/><g class="green-dots"/><g class="corners-square-color-0-0"><path clip-rule="evenodd" d="M28.17316 1.8929642366863908C30.42700923076923 0.12550795976331353, 33.59658769230769 0.12550989822485215, 35.85043692307693 1.8929642366863908L38.46503384615385 3.943255621301774L41.71021230769231 3.230425159763313C44.5078 2.615913467455621, 47.36334769230769 3.9910774674556206, 48.62703076923077 6.561419313609467L50.09308923076923 9.543083313609467L53.32624923076923 10.308891928994083C56.11336923076923 10.969054390532545, 58.089436923076924 13.447028544378698, 58.11289230769231 16.311163621301773L58.14003076923077 19.63355100591716L60.72070461538461 21.726314082840236C62.945476923076924 23.530440236686392, 63.65068923076923 26.620347928994082, 62.42907076923077 29.21110177514793L61.01205538461539 32.216298698224854L62.42907076923077 35.22149562130178C63.65068923076923 37.81224946745562, 62.945476923076924 40.90215715976331, 60.72070461538461 42.70628331360947L58.14003076923077 44.799046390532546L58.11289230769231 48.121569467455615C58.089436923076924 50.985646390532544, 56.11336923076923 53.46358177514793, 53.32624923076923 54.12382177514793L50.09308923076923 54.889514082840236L48.62703076923077 57.87125562130178C47.36334769230769 60.44165562130178, 44.5078 61.81680023668639, 41.71021230769231 61.20230792899408L38.46503384615385 60.48934177514793L35.85043692307693 62.5396525443787C33.59658769230769 64.30714177514794, 30.42700923076923 64.30714177514794, 28.17316 62.5396525443787L25.55856307692308 60.48934177514793L22.313384615384614 61.20230792899408C19.515893846153848 61.81680023668639, 16.660346153846152 60.44165562130178, 15.396527384615384 57.87125562130178L13.930488307692308 54.889514082840236L10.697367076923076 54.12382177514793C7.910227692307692 53.46358177514793, 5.9341406153846155 50.985646390532544, 5.910724 48.121569467455615L5.883546769230769 44.799046390532546L3.302872923076923 42.70628331360947C1.0781923046153845 40.90215715976331, 0.3729328923076922 37.81224946745562, 1.594539723076923 35.22149562130178L3.0116384615384613 32.216298698224854L1.594539723076923 29.21110177514793C0.3729309538461538 26.620347928994082, 1.0781973446153845 23.530440236686392, 3.302872923076923 21.726314082840236L5.883546769230769 19.63355100591716L5.910724 16.311163621301773C5.9341406153846155 13.447009159763313, 7.910247076923077 10.969054390532545, 10.697367076923076 10.308891928994083L13.930488307692308 9.543083313609467L15.396527384615384 6.561419313609467C16.660346153846152 3.9910774674556206, 19.515893846153848 2.615913467455621, 22.313384615384614 3.230425159763313L25.55856307692308 3.943255621301774L28.17316 1.8929642366863908M32.011895384615386 8.937721159763313L29.813486153846156 10.661653159763315C28.351886153846152 11.80782669822485, 26.45452 12.240898390532545, 24.640313846153845 11.84238946745562L21.911541538461538 11.243017159763314L20.678873846153845 13.75006823668639C19.859331076923077 15.416931928994082, 18.33777446153846 16.630331313609467, 16.53033353846154 17.058440544378698L13.811854461538461 17.70235869822485L13.789 20.4959725443787C13.773821846153846 22.353406390532545, 12.929428 24.106744852071007, 11.486728 25.276606390532546L9.316833538461538 27.03634177514793L10.508347692307693 29.56332023668639C11.300558153846154 31.24319100591716, 11.300558153846154 33.18940639053254, 10.508347692307693 34.86947100591716L9.316833538461538 37.396255621301776L11.486728 39.15599100591716L8.994913230769232 42.228646390532546L11.486728 39.15599100591716C12.929428 40.3258525443787, 13.773821846153846 42.07938485207101, 13.789 43.936624852071006L13.811854461538461 46.730335621301776L16.53033353846154 47.374292544378704C18.33777446153846 47.802304852071, 19.859331076923077 49.01578177514793, 20.678873846153845 50.68266485207101L21.911541538461538 53.18967715976331L24.640313846153845 52.59030485207101C26.45452 52.19175715976331, 28.351886153846152 52.62480946745562, 29.813486153846156 53.77102177514793L32.011895384615386 55.49489562130178L34.21011076923077 53.77102177514793C35.671710769230764 52.62480946745562, 37.56907692307692 52.19175715976331, 39.38328307692307 52.59030485207101L42.11205538461539 53.18967715976331L43.344723076923074 50.68266485207101C44.164304615384616 49.01578177514793, 45.68580307692307 47.802304852071, 47.49322461538462 47.374292544378704L50.21172307692308 46.730335621301776L50.23459692307693 43.936624852071006C50.249716923076925 42.07938485207101, 51.09411076923077 40.3258525443787, 52.53690769230769 39.15599100591716L54.70682153846154 37.396255621301776L53.51524923076923 34.86947100591716C52.723 33.18940639053254, 52.723 31.24319100591716, 53.51524923076923 29.56332023668639L54.70682153846154 27.03634177514793L52.53690769230769 25.27680023668639C51.09411076923077 24.106744852071007, 50.249716923076925 22.353406390532545, 50.23459692307693 20.4959725443787L50.21172307692308 17.70235869822485L47.49322461538462 17.058440544378698C45.68580307692307 16.630331313609467, 44.164304615384616 15.416931928994082, 43.344723076923074 13.750087621301775L42.11205538461539 11.243017159763314L39.38328307692307 11.84238946745562C37.56907692307692 12.240898390532545, 35.67190461538461 11.807846082840237, 34.21011076923077 10.661653159763315L32.011895384615386 8.937721159763313Z" transform="rotate(0,32.5,32.5)"/></g><g class="corners-dot-color-0-0"><path clip-rule="evenodd" d="M30.911112307692306 19.993357C31.38278153846154 19.609649615384615, 32.05900692307692 19.609649615384615, 32.530696923076924 19.993357L34.09813 21.268436153846153C34.38179615384615 21.499203076923077, 34.75045 21.59798153846154, 35.111502307692305 21.539973076923076L37.10647 21.21944153846154C37.706825384615385 21.122968461538463, 38.29245538461538 21.461091538461538, 38.509078461538465 22.029233846153847L39.22898153846154 23.91719846153846C39.35926692307692 24.258873076923077, 39.62914230769231 24.528748461538463, 39.9709 24.659033846153847L41.85882307692308 25.378936923076925C42.42686153846154 25.59556, 42.76498461538462 26.18119, 42.66861538461539 26.781545384615384L42.34814615384616 28.776513076923077C42.28999230769231 29.137565384615385, 42.38885384615385 29.506219230769233, 42.619600000000005 29.789885384615385L43.89462307692308 31.357318461538462C44.27843846153846 31.829008461538464, 44.27843846153846 32.50523384615384, 43.89462307692308 32.97690307692308L42.619600000000005 34.54433615384615C42.38885384615385 34.828023076923074, 42.28999230769231 35.196656153846156, 42.34814615384616 35.55770846153846L42.66861538461539 37.55269692307692C42.76498461538462 38.15303153846154, 42.42686153846154 38.73866153846154, 41.85882307692308 38.955305384615386L39.9709 39.675187692307695C39.62914230769231 39.80557692307693, 39.35926692307692 40.075369230769226, 39.22898153846154 40.41702307692307L38.509078461538465 42.30494615384616C38.29245538461538 42.87319230769231, 37.706825384615385 43.21131538461539, 37.10647 43.114738461538465L35.111502307692305 42.79426923076923C34.75045 42.73632307692308, 34.38179615384615 42.83497692307692, 34.09813 43.06572307692308L32.530696923076924 44.34095384615385C32.05900692307692 44.72456153846154, 31.38278153846154 44.72456153846154, 30.911112307692306 44.34095384615385L29.343679230769233 43.06572307692308C29.05999230769231 42.83497692307692, 28.69135923076923 42.73632307692308, 28.330306923076925 42.79426923076923L26.335318461538463 43.114738461538465C25.734983846153845 43.21131538461539, 25.149353846153847 42.87319230769231, 24.93271 42.30494615384616L24.21282769230769 40.41702307692307C24.082542307692307 40.075369230769226, 23.812666923076925 39.80557692307693, 23.470992307692306 39.675187692307695L21.583006923076923 38.955305384615386C21.014872923076922 38.73866153846154, 20.67676023076923 38.15303153846154, 20.77321876923077 37.55269692307692L21.093746153846155 35.55770846153846C21.151754615384615 35.196656153846156, 21.05298446153846 34.828023076923074, 20.822221692307693 34.54433615384615L19.54714253846154 32.97690307692308C19.163434946153846 32.50523384615384, 19.163434946153846 31.829008461538464, 19.54714253846154 31.357318461538462L20.822221692307693 29.789885384615385C21.05298446153846 29.506219230769233, 21.151754615384615 29.137565384615385, 21.093746153846155 28.776513076923077L20.77321876923077 26.781545384615384C20.67676023076923 26.18119, 21.014872923076922 25.59556, 21.583006923076923 25.378936923076925L23.470992307692306 24.659033846153847C23.812666923076925 24.528748461538463, 24.082542307692307 24.258873076923077, 24.21282769230769 23.91719846153846L24.93271 22.029233846153847C25.149353846153847 21.461091538461538, 25.734983846153845 21.122968461538463, 26.335318461538463 21.21944153846154L28.330306923076925 21.539973076923076C28.69135923076923 21.59798153846154, 29.05999230769231 21.499203076923077, 29.343679230769233 21.268436153846153L30.911112307692306 19.993357Z" transform="rotate(0,32.5,32.5)"/></g><g class="corners-square-color-1-0"><path clip-rule="evenodd" d="M262.17316 1.8929642366863908C264.4270092307692 0.12550795976331353, 267.5965876923077 0.12550989822485215, 269.8504369230769 1.8929642366863908L272.46503384615386 3.943255621301774L275.7102123076923 3.230425159763313C278.5078 2.615913467455621, 281.3633476923077 3.9910774674556206, 282.62703076923077 6.561419313609467L284.09308923076924 9.543083313609467L287.32624923076924 10.308891928994083C290.11336923076925 10.969054390532545, 292.0894369230769 13.447028544378698, 292.11289230769233 16.311163621301773L292.14003076923075 19.63355100591716L294.7207046153846 21.726314082840236C296.9454769230769 23.530440236686392, 297.6506892307692 26.620347928994082, 296.42907076923075 29.21110177514793L295.0120553846154 32.216298698224854L296.42907076923075 35.22149562130178C297.6506892307692 37.81224946745562, 296.9454769230769 40.90215715976331, 294.7207046153846 42.70628331360947L292.14003076923075 44.799046390532546L292.11289230769233 48.121569467455615C292.0894369230769 50.985646390532544, 290.11336923076925 53.46358177514793, 287.32624923076924 54.12382177514793L284.09308923076924 54.889514082840236L282.62703076923077 57.87125562130178C281.3633476923077 60.44165562130178, 278.5078 61.81680023668639, 275.7102123076923 61.20230792899408L272.46503384615386 60.48934177514793L269.8504369230769 62.5396525443787C267.5965876923077 64.30714177514794, 264.4270092307692 64.30714177514794, 262.17316 62.5396525443787L259.55856307692306 60.48934177514793L256.3133846153846 61.20230792899408C253.51589384615386 61.81680023668639, 250.66034615384615 60.44165562130178, 249.39652738461538 57.87125562130178L247.93048830769231 54.889514082840236L244.6973670769231 54.12382177514793C241.9102276923077 53.46358177514793, 239.93414061538462 50.985646390532544, 239.910724 48.121569467455615L239.88354676923078 44.799046390532546L237.30287292307693 42.70628331360947C235.07819230461538 40.90215715976331, 234.3729328923077 37.81224946745562, 235.59453972307693 35.22149562130178L237.01163846153847 32.216298698224854L235.59453972307693 29.21110177514793C234.37293095384615 26.620347928994082, 235.07819734461538 23.530440236686392, 237.30287292307693 21.726314082840236L239.88354676923078 19.63355100591716L239.910724 16.311163621301773C239.93414061538462 13.447009159763313, 241.91024707692307 10.969054390532545, 244.6973670769231 10.308891928994083L247.93048830769231 9.543083313609467L249.39652738461538 6.561419313609467C250.66034615384615 3.9910774674556206, 253.51589384615386 2.615913467455621, 256.3133846153846 3.230425159763313L259.55856307692306 3.943255621301774L262.17316 1.8929642366863908M266.0118953846154 8.937721159763313L263.81348615384616 10.661653159763315C262.3518861538462 11.80782669822485, 260.45452 12.240898390532545, 258.64031384615384 11.84238946745562L255.91154153846153 11.243017159763314L254.67887384615383 13.75006823668639C253.85933107692307 15.416931928994082, 252.33777446153846 16.630331313609467, 250.53033353846155 17.058440544378698L247.81185446153847 17.70235869822485L247.789 20.4959725443787C247.77382184615385 22.353406390532545, 246.929428 24.106744852071007, 245.486728 25.276606390532546L243.31683353846154 27.03634177514793L244.5083476923077 29.56332023668639C245.30055815384617 31.24319100591716, 245.30055815384617 33.18940639053254, 244.5083476923077 34.86947100591716L243.31683353846154 37.396255621301776L245.486728 39.15599100591716L242.99491323076924 42.228646390532546L245.486728 39.15599100591716C246.929428 40.3258525443787, 247.77382184615385 42.07938485207101, 247.789 43.936624852071006L247.81185446153847 46.730335621301776L250.53033353846155 47.374292544378704C252.33777446153846 47.802304852071, 253.85933107692307 49.01578177514793, 254.67887384615383 50.68266485207101L255.91154153846153 53.18967715976331L258.64031384615384 52.59030485207101C260.45452 52.19175715976331, 262.3518861538462 52.62480946745562, 263.81348615384616 53.77102177514793L266.0118953846154 55.49489562130178L268.21011076923077 53.77102177514793C269.67171076923074 52.62480946745562, 271.5690769230769 52.19175715976331, 273.3832830769231 52.59030485207101L276.11205538461536 53.18967715976331L277.34472307692306 50.68266485207101C278.1643046153846 49.01578177514793, 279.6858030769231 47.802304852071, 281.49322461538463 47.374292544378704L284.2117230769231 46.730335621301776L284.23459692307694 43.936624852071006C284.2497169230769 42.07938485207101, 285.0941107692308 40.3258525443787, 286.5369076923077 39.15599100591716L288.70682153846155 37.396255621301776L287.5152492307692 34.86947100591716C286.723 33.18940639053254, 286.723 31.24319100591716, 287.5152492307692 29.56332023668639L288.70682153846155 27.03634177514793L286.5369076923077 25.27680023668639C285.0941107692308 24.106744852071007, 284.2497169230769 22.353406390532545, 284.23459692307694 20.4959725443787L284.2117230769231 17.70235869822485L281.49322461538463 17.058440544378698C279.6858030769231 16.630331313609467, 278.1643046153846 15.416931928994082, 277.34472307692306 13.750087621301775L276.11205538461536 11.243017159763314L273.3832830769231 11.84238946745562C271.5690769230769 12.240898390532545, 269.6719046153846 11.807846082840237, 268.21011076923077 10.661653159763315L266.0118953846154 8.937721159763313Z" transform="rotate(0,266.5,32.5)"/></g><g class="corners-dot-color-1-0"><path clip-rule="evenodd" d="M264.9111123076923 19.993357C265.38278153846153 19.609649615384615, 266.05900692307694 19.609649615384615, 266.5306969230769 19.993357L268.09813 21.268436153846153C268.38179615384615 21.499203076923077, 268.75045 21.59798153846154, 269.1115023076923 21.539973076923076L271.10647 21.21944153846154C271.7068253846154 21.122968461538463, 272.2924553846154 21.461091538461538, 272.5090784615385 22.029233846153847L273.22898153846154 23.91719846153846C273.3592669230769 24.258873076923077, 273.6291423076923 24.528748461538463, 273.97090000000003 24.659033846153847L275.8588230769231 25.378936923076925C276.42686153846154 25.59556, 276.7649846153846 26.18119, 276.6686153846154 26.781545384615384L276.34814615384613 28.776513076923077C276.28999230769233 29.137565384615385, 276.38885384615384 29.506219230769233, 276.6196 29.789885384615385L277.8946230769231 31.357318461538462C278.2784384615385 31.829008461538464, 278.2784384615385 32.50523384615384, 277.8946230769231 32.97690307692308L276.6196 34.54433615384615C276.38885384615384 34.828023076923074, 276.28999230769233 35.196656153846156, 276.34814615384613 35.55770846153846L276.6686153846154 37.55269692307692C276.7649846153846 38.15303153846154, 276.42686153846154 38.73866153846154, 275.8588230769231 38.955305384615386L273.97090000000003 39.675187692307695C273.6291423076923 39.80557692307693, 273.3592669230769 40.075369230769226, 273.22898153846154 40.41702307692307L272.5090784615385 42.30494615384616C272.2924553846154 42.87319230769231, 271.7068253846154 43.21131538461539, 271.10647 43.114738461538465L269.1115023076923 42.79426923076923C268.75045 42.73632307692308, 268.38179615384615 42.83497692307692, 268.09813 43.06572307692308L266.5306969230769 44.34095384615385C266.05900692307694 44.72456153846154, 265.38278153846153 44.72456153846154, 264.9111123076923 44.34095384615385L263.3436792307692 43.06572307692308C263.0599923076923 42.83497692307692, 262.69135923076925 42.73632307692308, 262.33030692307693 42.79426923076923L260.33531846153846 43.114738461538465C259.73498384615385 43.21131538461539, 259.1493538461539 42.87319230769231, 258.93271 42.30494615384616L258.2128276923077 40.41702307692307C258.08254230769234 40.075369230769226, 257.8126669230769 39.80557692307693, 257.4709923076923 39.675187692307695L255.58300692307694 38.955305384615386C255.01487292307692 38.73866153846154, 254.67676023076922 38.15303153846154, 254.77321876923077 37.55269692307692L255.09374615384615 35.55770846153846C255.15175461538462 35.196656153846156, 255.05298446153847 34.828023076923074, 254.8222216923077 34.54433615384615L253.54714253846154 32.97690307692308C253.16343494615384 32.50523384615384, 253.16343494615384 31.829008461538464, 253.54714253846154 31.357318461538462L254.8222216923077 29.789885384615385C255.05298446153847 29.506219230769233, 255.15175461538462 29.137565384615385, 255.09374615384615 28.776513076923077L254.77321876923077 26.781545384615384C254.67676023076922 26.18119, 255.01487292307692 25.59556, 255.58300692307694 25.378936923076925L257.4709923076923 24.659033846153847C257.8126669230769 24.528748461538463, 258.08254230769234 24.258873076923077, 258.2128276923077 23.91719846153846L258.93271 22.029233846153847C259.1493538461539 21.461091538461538, 259.73498384615385 21.122968461538463, 260.33531846153846 21.21944153846154L262.33030692307693 21.539973076923076C262.69135923076925 21.59798153846154, 263.0599923076923 21.499203076923077, 263.3436792307692 21.268436153846153L264.9111123076923 19.993357Z" transform="rotate(0,266.5,32.5)"/></g><g class="corners-square-color-0-1"><path clip-rule="evenodd" d="M28.17316 235.8929642366864C30.42700923076923 234.12550795976333, 33.59658769230769 234.12550989822486, 35.85043692307693 235.8929642366864L38.46503384615385 237.94325562130177L41.71021230769231 237.2304251597633C44.5078 236.61591346745564, 47.36334769230769 237.99107746745563, 48.62703076923077 240.56141931360946L50.09308923076923 243.5430833136095L53.32624923076923 244.3088919289941C56.11336923076923 244.96905439053256, 58.089436923076924 247.4470285443787, 58.11289230769231 250.31116362130177L58.14003076923077 253.63355100591716L60.72070461538461 255.72631408284022C62.945476923076924 257.5304402366864, 63.65068923076923 260.6203479289941, 62.42907076923077 263.21110177514794L61.01205538461539 266.2162986982248L62.42907076923077 269.22149562130176C63.65068923076923 271.8122494674556, 62.945476923076924 274.9021571597633, 60.72070461538461 276.70628331360945L58.14003076923077 278.7990463905325L58.11289230769231 282.1215694674556C58.089436923076924 284.9856463905325, 56.11336923076923 287.46358177514793, 53.32624923076923 288.1238217751479L50.09308923076923 288.8895140828402L48.62703076923077 291.87125562130177C47.36334769230769 294.4416556213018, 44.5078 295.8168002366864, 41.71021230769231 295.20230792899406L38.46503384615385 294.4893417751479L35.85043692307693 296.53965254437867C33.59658769230769 298.3071417751479, 30.42700923076923 298.3071417751479, 28.17316 296.53965254437867L25.55856307692308 294.4893417751479L22.313384615384614 295.20230792899406C19.515893846153848 295.8168002366864, 16.660346153846152 294.4416556213018, 15.396527384615384 291.87125562130177L13.930488307692308 288.8895140828402L10.697367076923076 288.1238217751479C7.910227692307692 287.46358177514793, 5.9341406153846155 284.9856463905325, 5.910724 282.1215694674556L5.883546769230769 278.7990463905325L3.302872923076923 276.70628331360945C1.0781923046153845 274.9021571597633, 0.3729328923076922 271.8122494674556, 1.594539723076923 269.22149562130176L3.0116384615384613 266.2162986982248L1.594539723076923 263.21110177514794C0.3729309538461538 260.6203479289941, 1.0781973446153845 257.5304402366864, 3.302872923076923 255.72631408284022L5.883546769230769 253.63355100591716L5.910724 250.31116362130177C5.9341406153846155 247.44700915976333, 7.910247076923077 244.96905439053256, 10.697367076923076 244.3088919289941L13.930488307692308 243.5430833136095L15.396527384615384 240.56141931360946C16.660346153846152 237.99107746745563, 19.515893846153848 236.61591346745564, 22.313384615384614 237.2304251597633L25.55856307692308 237.94325562130177L28.17316 235.8929642366864M32.011895384615386 242.93772115976333L29.813486153846156 244.66165315976332C28.351886153846152 245.80782669822486, 26.45452 246.24089839053255, 24.640313846153845 245.84238946745563L21.911541538461538 245.24301715976333L20.678873846153845 247.7500682366864C19.859331076923077 249.4169319289941, 18.33777446153846 250.63033131360947, 16.53033353846154 251.0584405443787L13.811854461538461 251.70235869822486L13.789 254.4959725443787C13.773821846153846 256.35340639053254, 12.929428 258.10674485207096, 11.486728 259.27660639053255L9.316833538461538 261.0363417751479L10.508347692307693 263.56332023668637C11.300558153846154 265.24319100591714, 11.300558153846154 267.1894063905325, 10.508347692307693 268.86947100591715L9.316833538461538 271.39625562130175L11.486728 273.15599100591714L8.994913230769232 276.2286463905325L11.486728 273.15599100591714C12.929428 274.3258525443787, 13.773821846153846 276.079384852071, 13.789 277.93662485207096L13.811854461538461 280.7303356213018L16.53033353846154 281.3742925443787C18.33777446153846 281.80230485207096, 19.859331076923077 283.0157817751479, 20.678873846153845 284.682664852071L21.911541538461538 287.1896771597633L24.640313846153845 286.590304852071C26.45452 286.1917571597633, 28.351886153846152 286.6248094674556, 29.813486153846156 287.7710217751479L32.011895384615386 289.49489562130174L34.21011076923077 287.7710217751479C35.671710769230764 286.6248094674556, 37.56907692307692 286.1917571597633, 39.38328307692307 286.590304852071L42.11205538461539 287.1896771597633L43.344723076923074 284.682664852071C44.164304615384616 283.0157817751479, 45.68580307692307 281.80230485207096, 47.49322461538462 281.3742925443787L50.21172307692308 280.7303356213018L50.23459692307693 277.93662485207096C50.249716923076925 276.079384852071, 51.09411076923077 274.3258525443787, 52.53690769230769 273.15599100591714L54.70682153846154 271.39625562130175L53.51524923076923 268.86947100591715C52.723 267.1894063905325, 52.723 265.24319100591714, 53.51524923076923 263.56332023668637L54.70682153846154 261.0363417751479L52.53690769230769 259.27680023668637C51.09411076923077 258.10674485207096, 50.249716923076925 256.35340639053254, 50.23459692307693 254.4959725443787L50.21172307692308 251.70235869822486L47.49322461538462 251.0584405443787C45.68580307692307 250.63033131360947, 44.164304615384616 249.4169319289941, 43.344723076923074 247.7500876213018L42.11205538461539 245.24301715976333L39.38328307692307 245.84238946745563C37.56907692307692 246.24089839053255, 35.67190461538461 245.80784608284026, 34.21011076923077 244.66165315976332L32.011895384615386 242.93772115976333Z" transform="rotate(0,32.5,266.5)"/></g><g class="corners-dot-color-0-1"><path clip-rule="evenodd" d="M30.911112307692306 253.993357C31.38278153846154 253.60964961538463, 32.05900692307692 253.60964961538463, 32.530696923076924 253.993357L34.09813 255.26843615384615C34.38179615384615 255.49920307692307, 34.75045 255.59798153846154, 35.111502307692305 255.53997307692308L37.10647 255.21944153846152C37.706825384615385 255.12296846153845, 38.29245538461538 255.46109153846155, 38.509078461538465 256.02923384615383L39.22898153846154 257.9171984615385C39.35926692307692 258.25887307692307, 39.62914230769231 258.52874846153844, 39.9709 258.6590338461539L41.85882307692308 259.37893692307694C42.42686153846154 259.59556, 42.76498461538462 260.18119, 42.66861538461539 260.7815453846154L42.34814615384616 262.7765130769231C42.28999230769231 263.1375653846154, 42.38885384615385 263.50621923076926, 42.619600000000005 263.7898853846154L43.89462307692308 265.35731846153845C44.27843846153846 265.8290084615385, 44.27843846153846 266.5052338461538, 43.89462307692308 266.97690307692307L42.619600000000005 268.54433615384613C42.38885384615385 268.8280230769231, 42.28999230769231 269.19665615384616, 42.34814615384616 269.5577084615385L42.66861538461539 271.55269692307695C42.76498461538462 272.15303153846156, 42.42686153846154 272.73866153846154, 41.85882307692308 272.9553053846154L39.9709 273.6751876923077C39.62914230769231 273.8055769230769, 39.35926692307692 274.07536923076924, 39.22898153846154 274.4170230769231L38.509078461538465 276.3049461538462C38.29245538461538 276.8731923076923, 37.706825384615385 277.2113153846154, 37.10647 277.1147384615385L35.111502307692305 276.79426923076926C34.75045 276.7363230769231, 34.38179615384615 276.8349769230769, 34.09813 277.06572307692306L32.530696923076924 278.34095384615387C32.05900692307692 278.72456153846156, 31.38278153846154 278.72456153846156, 30.911112307692306 278.34095384615387L29.343679230769233 277.06572307692306C29.05999230769231 276.8349769230769, 28.69135923076923 276.7363230769231, 28.330306923076925 276.79426923076926L26.335318461538463 277.1147384615385C25.734983846153845 277.2113153846154, 25.149353846153847 276.8731923076923, 24.93271 276.3049461538462L24.21282769230769 274.4170230769231C24.082542307692307 274.07536923076924, 23.812666923076925 273.8055769230769, 23.470992307692306 273.6751876923077L21.583006923076923 272.9553053846154C21.014872923076922 272.73866153846154, 20.67676023076923 272.15303153846156, 20.77321876923077 271.55269692307695L21.093746153846155 269.5577084615385C21.151754615384615 269.19665615384616, 21.05298446153846 268.8280230769231, 20.822221692307693 268.54433615384613L19.54714253846154 266.97690307692307C19.163434946153846 266.5052338461538, 19.163434946153846 265.8290084615385, 19.54714253846154 265.35731846153845L20.822221692307693 263.7898853846154C21.05298446153846 263.50621923076926, 21.151754615384615 263.1375653846154, 21.093746153846155 262.7765130769231L20.77321876923077 260.7815453846154C20.67676023076923 260.18119, 21.014872923076922 259.59556, 21.583006923076923 259.37893692307694L23.470992307692306 258.6590338461539C23.812666923076925 258.52874846153844, 24.082542307692307 258.25887307692307, 24.21282769230769 257.9171984615385L24.93271 256.02923384615383C25.149353846153847 255.46109153846155, 25.734983846153845 255.12296846153845, 26.335318461538463 255.21944153846152L28.330306923076925 255.53997307692308C28.69135923076923 255.59798153846154, 29.05999230769231 255.49920307692307, 29.343679230769233 255.26843615384615L30.911112307692306 253.993357Z" transform="rotate(0,32.5,266.5)"/></g><svg id="githubLogotype" xmlns="http://www.w3.org/2000/svg" viewBox="0 0 51 50" x="111" y="112" width="77px" height="75px"><circle cx="25.5" cy="25" r="25" fill="black"/><path d="M25.5 4C13.8975 4 4.5 13.3975 4.5 25C4.5 34.2925 10.5112 42.1413 18.8587 44.9238C19.9087 45.1075 20.3025 44.4775 20.3025 43.9263C20.3025 43.4275 20.2763 41.7738 20.2763 40.015C15 40.9863 13.635 38.7287 13.215 37.5475C12.9788 36.9437 11.955 35.08 11.0625 34.5812C10.3275 34.1875 9.2775 33.2162 11.0363 33.19C12.69 33.1637 13.8713 34.7125 14.265 35.3425C16.155 38.5187 19.1738 37.6263 20.3813 37.075C20.565 35.71 21.1162 34.7913 21.72 34.2662C17.0475 33.7412 12.165 31.93 12.165 23.8975C12.165 21.6138 12.9788 19.7237 14.3175 18.2537C14.1075 17.7287 13.3725 15.5763 14.5275 12.6888C14.5275 12.6888 16.2863 12.1375 20.3025 14.8413C21.9825 14.3688 23.7675 14.1325 25.5525 14.1325C27.3375 14.1325 29.1225 14.3688 30.8025 14.8413C34.8188 12.1112 36.5775 12.6888 36.5775 12.6888C37.7325 15.5763 36.9975 17.7287 36.7875 18.2537C38.1263 19.7237 38.94 21.5875 38.94 23.8975C38.94 31.9562 34.0312 33.7412 29.3588 34.2662C30.12 34.9225 30.7763 36.1825 30.7763 38.1512C30.7763 40.96 30.75 43.2175 30.75 43.9263C30.75 44.4775 31.1438 45.1338 32.1938 44.9238C36.3626 43.5164 39.9852 40.8371 42.5516 37.263C45.1179 33.6889 46.4989 29.4 46.5 25C46.5 13.3975 37.1025 4 25.5 4Z" fill="white"/></svg></svg></g></svg></svg>